HIERARCHY
ROOT Hips
{
	OFFSET -0.001795 -0.223333 0.028219
	CHANNELS 6 Xposition Yposition Zposition Zrotation Yrotation Xrotation 
	JOINT LeftUpLeg
	{
		OFFSET 0.069520 -0.091406 -0.006815
		CHANNELS 3 Zrotation Yrotation Xrotation
		JOINT LeftLeg
		{
			OFFSET 0.034277 -0.375199 -0.004496
			CHANNELS 3 Zrotation Yrotation Xrotation
			JOINT LeftFoot
			{
				OFFSET -0.013596 -0.397961 -0.043693
				CHANNELS 3 Zrotation Yrotation Xrotation
				JOINT LeftToe
				{
					OFFSET 0.026358 -0.055791 0.119288
					CHANNELS 3 Zrotation Yrotation Xrotation
					End Site
					{
						OFFSET 0.000000 0.000000 0.000000
					}
				}
			}
		}
	}
	JOINT RightUpLeg
	{
		OFFSET -0.067670 -0.090522 -0.004320
		CHANNELS 3 Zrotation Yrotation Xrotation
		JOINT RightLeg
		{
			OFFSET -0.038290 -0.382569 -0.008850
			CHANNELS 3 Zrotation Yrotation Xrotation
			JOINT RightFoot
			{
				OFFSET 0.015774 -0.398415 -0.042312
				CHANNELS 3 Zrotation Yrotation Xrotation
				JOINT RightToe
				{
					OFFSET -0.025372 -0.048144 0.123348
					CHANNELS 3 Zrotation Yrotation Xrotation
					End Site
					{
						OFFSET 0.000000 0.000000 0.000000
					}
				}
			}
		}
	}
	JOINT Spine
	{
		OFFSET -0.002533 0.108963 -0.026696
		CHANNELS 3 Zrotation Yrotation Xrotation
		JOINT Spine1
		{
			OFFSET 0.005487 0.135180 0.001092
			CHANNELS 3 Zrotation Yrotation Xrotation
			JOINT Spine2
			{
				OFFSET 0.001457 0.052922 0.025425
				CHANNELS 3 Zrotation Yrotation Xrotation
				JOINT Neck
				{
					OFFSET -0.002778 0.213870 -0.042857
					CHANNELS 3 Zrotation Yrotation Xrotation
					JOINT Head
					{
						OFFSET 0.005152 0.064970 0.051349
						CHANNELS 3 Zrotation Yrotation Xrotation
						End Site
						{
							OFFSET 0.000000 0.000000 0.000000
						}
					}
				}
				JOINT LeftShoulder
				{
					OFFSET 0.078845 0.121749 -0.034090
					CHANNELS 3 Zrotation Yrotation Xrotation
					JOINT LeftArm
					{
						OFFSET 0.090977 0.030469 -0.008868
						CHANNELS 3 Zrotation Yrotation Xrotation
						JOINT LeftForeArm
						{
							OFFSET 0.259612 -0.012772 -0.027456
							CHANNELS 3 Zrotation Yrotation Xrotation
							JOINT LeftHand
							{
								OFFSET 0.249234 0.008986 -0.001171
								CHANNELS 3 Zrotation Yrotation Xrotation
								End Site
								{
									OFFSET 0.000000 0.000000 0.000000
								}
							}
						}
					}
				}
				JOINT RightShoulder
				{
					OFFSET -0.081759 0.118833 -0.038615
					CHANNELS 3 Zrotation Yrotation Xrotation
					JOINT RightArm
					{
						OFFSET -0.096012 0.032551 -0.009143
						CHANNELS 3 Zrotation Yrotation Xrotation
						JOINT RightForeArm
						{
							OFFSET -0.253742 -0.013329 -0.021401
							CHANNELS 3 Zrotation Yrotation Xrotation
							JOINT RightHand
							{
								OFFSET -0.255298 0.007772 -0.005559
								CHANNELS 3 Zrotation Yrotation Xrotation
								End Site
								{
									OFFSET 0.000000 0.000000 0.000000
								}
							}
						}
					}
				}
			}
		}
	}
}
MOTION
Frames: 16
Frame Time: 0.050000
0.000000 0.896238 0.000000 -1.887521 -13.705863 13.269597 5.606176 1.193048 -48.498101 -1.430188 2.538097 55.075741 1.067876 1.643015 -1.542271 0.000000 0.000000 0.000000 0.102427 5.637954 -37.776786 3.453838 1.955368 36.825582 -3.009935 -6.162766 -3.602962 0.000000 0.000000 0.000000 3.794719 -0.659177 53.437344 -6.978150 1.655232 -34.530756 -2.081202 4.961477 28.544809 10.680852 -4.757151 -25.814944 0.000000 0.000000 0.000000 -22.008845 -5.027419 2.075354 -39.428087 -18.251330 -1.643300 32.291389 -51.961620 -12.013234 0.000000 0.000000 0.000000 23.797765 -3.521533 -3.693188 38.123932 16.417527 -1.240848 -29.057637 62.139976 -13.502800 0.000000 0.000000 0.000000 
-0.002216 0.886793 0.016418 -2.754555 -14.115551 14.715576 3.942960 0.798009 -51.150318 1.366087 0.311506 50.310361 -0.696174 -1.440554 0.178777 0.000000 0.000000 0.000000 0.461945 6.148084 -39.292145 3.669195 2.135653 38.872658 -3.049587 -5.148451 -5.536930 0.000000 0.000000 0.000000 3.165759 -0.052811 55.804084 -2.688701 1.051346 -33.672243 -4.593071 8.889349 26.841803 11.498409 -3.315559 -31.740328 0.000000 0.000000 0.000000 -22.070895 -6.176270 1.329036 -40.801013 -18.560067 -0.932377 32.253513 -50.355594 -12.403295 0.000000 0.000000 0.000000 25.473646 -5.629226 -3.997463 39.978343 16.828640 -1.213628 -25.852736 61.241565 -10.206826 0.000000 0.000000 0.000000 
-0.002826 0.871005 0.034194 -2.629273 -14.486522 13.552761 3.399125 0.789183 -53.187273 1.550856 0.219656 52.246167 -2.735168 -3.417440 4.987298 0.000000 0.000000 0.000000 0.675646 6.197090 -39.009274 4.694076 2.225149 43.407561 -4.874112 -8.325134 -10.026717 0.000000 0.000000 0.000000 3.402224 0.112699 59.174602 -5.857629 1.432605 -34.450086 -3.101089 6.782555 28.302837 12.038590 -4.321317 -30.135664 0.000000 0.000000 0.000000 -23.419048 -7.489970 2.751170 -41.853385 -20.021104 -0.756845 34.191072 -49.016062 -12.381624 0.000000 0.000000 0.000000 27.245469 -4.265926 -3.771846 41.089730 15.840465 -1.566353 -29.302789 59.803587 -12.053331 0.000000 0.000000 0.000000 
-0.002334 0.860329 0.052342 -3.869154 -15.607552 14.998318 3.313761 1.273853 -54.359837 3.540599 -0.811611 53.773981 -4.176929 -6.116284 4.972542 0.000000 0.000000 0.000000 0.708499 7.157078 -42.171653 5.576224 2.463988 48.176235 -4.144055 -6.322609 -9.525151 0.000000 0.000000 0.000000 3.270345 0.746149 60.966267 -5.914399 1.418065 -34.549917 -3.378050 7.045621 28.915317 11.282454 -3.189493 -33.898803 0.000000 0.000000 0.000000 -23.636073 -8.340634 3.260181 -42.461462 -20.945884 -0.433309 35.105685 -47.659627 -12.341441 0.000000 0.000000 0.000000 25.524134 -5.479677 -4.372942 43.448469 16.959540 -1.151249 -25.987271 58.354494 -9.667383 0.000000 0.000000 0.000000 
-0.000823 0.851474 0.070549 -3.765995 -15.746017 15.498665 2.610622 1.030594 -55.049419 3.020705 -0.422140 55.445542 -2.211828 -2.830589 4.014164 0.000000 0.000000 0.000000 0.419456 7.306999 -43.056149 5.851949 2.575710 50.456189 -4.734387 -8.105896 -10.261370 0.000000 0.000000 0.000000 3.363074 0.786264 61.569002 -7.135976 1.565635 -34.054681 -3.037302 5.987495 28.493983 10.933789 -3.042791 -34.356079 0.000000 0.000000 0.000000 -23.481348 -8.807961 3.863368 -43.854442 -22.262862 0.095824 37.346251 -46.813151 -12.800283 0.000000 0.000000 0.000000 25.017908 -5.479005 -4.678784 45.146662 16.706543 -1.001060 -24.920568 56.674031 -8.942242 0.000000 0.000000 0.000000 
0.000765 0.850678 0.088448 -3.943047 -15.652168 16.368158 2.408725 0.804861 -54.032813 2.426027 0.051518 55.478590 -0.448393 -1.186215 -0.482258 0.000000 0.000000 0.000000 -0.075940 7.414954 -44.269040 5.689283 2.778257 52.136942 -3.767827 -6.506052 -7.672419 0.000000 0.000000 0.000000 3.537098 0.673666 62.109115 -7.176016 1.541822 -35.201441 -3.385553 5.684899 28.659878 12.212239 -3.715581 -34.080691 0.000000 0.000000 0.000000 -23.265164 -9.040828 4.098278 -43.644248 -21.993102 -0.047969 37.983712 -47.289704 -13.175046 0.000000 0.000000 0.000000 24.628772 -5.723008 -4.875029 44.964206 15.212409 -1.493810 -21.951388 58.672294 -7.827571 0.000000 0.000000 0.000000 
0.002245 0.855354 0.105591 -4.043213 -15.905382 17.094087 2.818967 0.945745 -52.214088 1.789380 0.634969 53.915575 -0.600492 -2.503772 -2.846417 0.000000 0.000000 0.000000 -0.204787 7.465044 -44.444708 5.197148 3.126759 52.043964 -2.929920 -5.979796 -4.182387 0.000000 0.000000 0.000000 3.231424 0.945570 61.714984 -7.376431 1.540307 -35.669642 -3.557095 5.533180 28.028058 12.432117 -3.904255 -33.590545 0.000000 0.000000 0.000000 -22.930635 -8.765161 3.983631 -42.879666 -21.442790 -0.237920 37.349376 -49.218209 -13.543201 0.000000 0.000000 0.000000 24.805670 -5.850064 -5.107570 42.977561 14.895040 -1.548595 -17.320679 60.140650 -5.702760 0.000000 0.000000 0.000000 
0.003420 0.861217 0.121846 -4.263885 -15.512544 17.724641 2.567678 0.568327 -50.470273 2.185672 0.356287 52.863333 -0.532494 -3.572050 -5.519172 0.000000 0.000000 0.000000 -0.343566 7.297487 -44.253433 5.283578 2.946942 51.739854 -3.118630 -7.001546 -3.408940 0.000000 0.000000 0.000000 3.341569 0.636487 60.630713 -7.695438 1.567980 -36.035482 -3.446730 5.374103 27.486946 12.656312 -4.075584 -33.220267 0.000000 0.000000 0.000000 -21.722075 -8.418622 3.787795 -42.362626 -21.563403 -0.186211 38.945624 -49.460465 -14.385499 0.000000 0.000000 0.000000 24.710492 -6.055232 -5.336852 39.622010 14.236888 -1.680775 -17.140305 61.878683 -6.165538 0.000000 0.000000 0.000000 
0.003894 0.866613 0.137002 -4.538958 -15.354698 17.959366 2.943912 0.588019 -48.942662 1.865940 0.577792 51.682636 -0.911129 -4.403324 -5.420351 0.000000 0.000000 0.000000 -0.494861 6.985299 -43.245660 5.082192 2.920513 50.494572 -3.049391 -6.467033 -3.942526 0.000000 0.000000 0.000000 2.800621 0.833409 59.395565 -6.772827 1.469000 -36.304673 -3.522388 6.025324 27.015362 13.065586 -4.179937 -33.227923 0.000000 0.000000 0.000000 -20.566215 -8.717058 3.757136 -40.005817 -22.190181 -0.048681 40.990006 -49.551970 -15.645301 0.000000 0.000000 0.000000 24.895188 -5.770171 -5.025906 35.158217 15.528879 -1.377417 -21.837566 63.018910 -9.289586 0.000000 0.000000 0.000000 
0.003829 0.869704 0.150895 -4.813703 -14.866686 17.893580 2.659503 0.221360 -47.325504 2.512794 0.134494 51.274148 -0.812128 -4.902746 -6.866938 0.000000 0.000000 0.000000 -0.389552 6.783515 -42.576696 5.116638 2.802652 50.390043 -3.616625 -7.254158 -5.570867 0.000000 0.000000 0.000000 2.849044 0.563173 58.479000 -7.110344 1.511087 -36.525008 -3.060904 5.964471 26.469872 13.650495 -4.499687 -32.937605 0.000000 0.000000 0.000000 -18.440649 -9.337593 4.050046 -37.638731 -23.672319 0.286219 43.182370 -48.878491 -16.574471 0.000000 0.000000 0.000000 24.016330 -5.073197 -4.465430 31.929295 17.777066 -0.892640 -29.172386 61.650281 -13.515606 0.000000 0.000000 0.000000 
0.003274 0.870111 0.163989 -4.866251 -14.010444 17.615160 2.350910 -0.177598 -46.278781 2.814296 -0.198548 51.322624 -0.769968 -5.029956 -7.221756 0.000000 0.000000 0.000000 -0.465453 6.522175 -42.128748 4.599665 2.889401 50.191400 -3.801360 -6.656700 -7.584730 0.000000 0.000000 0.000000 2.671809 0.303391 57.274309 -6.871015 1.502288 -36.556626 -2.553217 5.937668 26.322312 13.582217 -4.555552 -32.479063 0.000000 0.000000 0.000000 -16.392304 -10.483469 4.578129 -34.810261 -25.700141 0.631081 44.084956 -47.116829 -16.474120 0.000000 0.000000 0.000000 23.869079 -4.697313 -4.171966 28.965444 20.446797 -0.496637 -35.945124 60.026659 -17.058870 0.000000 0.000000 0.000000 
0.002545 0.867245 0.176716 -5.156737 -13.692035 17.708859 2.112650 -0.354879 -45.925397 3.183770 -0.442155 52.267231 -0.252723 -4.300519 -8.244317 0.000000 0.000000 0.000000 -0.270704 6.580497 -42.304499 4.345809 3.128618 51.528270 -4.098576 -6.791669 -9.069970 0.000000 0.000000 0.000000 2.386415 0.340153 56.603552 -6.269421 1.450082 -36.677118 -2.370583 6.607432 25.714678 14.059460 -4.463889 -33.394366 0.000000 0.000000 0.000000 -15.392630 -11.438784 4.853415 -32.272979 -26.835996 0.751164 42.390538 -45.139767 -15.213076 0.000000 0.000000 0.000000 23.390366 -3.905647 -3.406796 27.497300 22.667091 -0.190649 -37.318489 57.314814 -16.731522 0.000000 0.000000 0.000000 
0.001688 0.863137 0.189379 -5.378099 -13.403506 17.795704 1.820857 -0.546176 -45.584990 3.523044 -0.670225 53.399734 0.368709 -3.508802 -9.737497 0.000000 0.000000 0.000000 -0.482269 6.564519 -42.725224 4.754081 2.974501 53.063966 -4.149748 -7.101602 -8.993143 0.000000 0.000000 0.000000 2.558766 0.100502 55.809688 -6.123927 1.445422 -36.738415 -2.089801 7.150019 25.663042 14.686184 -4.621878 -33.678210 0.000000 0.000000 0.000000 -14.922038 -12.889469 5.464611 -30.250599 -27.479471 0.717853 40.829012 -43.887944 -14.270347 0.000000 0.000000 0.000000 23.306644 -3.260464 -2.821544 27.236412 24.402332 0.053023 -35.960896 55.534520 -15.214347 0.000000 0.000000 0.000000 
0.000835 0.859316 0.201971 -5.821516 -13.142649 18.307987 1.505768 -0.708194 -45.479999 3.891507 -0.935018 54.053436 1.367729 -1.480746 -10.991755 0.000000 0.000000 0.000000 -0.311645 6.732044 -43.352605 4.945586 2.961688 54.609554 -4.098244 -7.100460 -8.825587 0.000000 0.000000 0.000000 2.424157 0.055023 54.721399 -5.529200 1.400344 -36.498103 -1.777846 7.732503 25.377198 14.900003 -4.375142 -34.915690 0.000000 0.000000 0.000000 -14.786332 -13.209454 5.498574 -30.305905 -27.689853 0.827886 38.513384 -44.627652 -13.640405 0.000000 0.000000 0.000000 23.368453 -2.185072 -2.010228 27.787046 25.540682 0.324913 -32.268162 53.961277 -12.697446 0.000000 0.000000 0.000000 
0.000070 0.857224 0.214092 -5.912583 -13.036575 18.513561 0.894084 -0.978313 -45.052921 4.304827 -1.203978 54.351041 2.058926 0.238512 -11.369833 0.000000 0.000000 0.000000 -0.211923 6.774982 -43.444511 4.949092 3.097245 55.997225 -4.262532 -7.795358 -8.650970 0.000000 0.000000 0.000000 2.652471 -0.130501 54.130223 -5.377330 1.393186 -36.223925 -1.775560 8.067736 25.154771 14.952244 -4.296136 -35.099359 0.000000 0.000000 0.000000 -15.272687 -13.708783 5.710632 -31.462679 -27.126692 0.881174 36.370747 -45.392726 -12.992918 0.000000 0.000000 0.000000 23.470301 -1.271022 -1.361101 30.655468 25.550255 0.659202 -27.146897 53.260378 -9.820590 0.000000 0.000000 0.000000 
-0.000588 0.857086 0.225356 -6.043035 -13.061964 19.335192 0.438862 -1.135884 -44.975234 4.530693 -1.329521 54.350832 2.691137 1.785479 -11.889598 0.000000 0.000000 0.000000 -0.322320 6.837559 -43.842573 4.878867 3.186571 56.337464 -4.442972 -8.613625 -8.320705 0.000000 0.000000 0.000000 2.846476 -0.233143 53.713067 -5.090355 1.375503 -36.152287 -1.747627 8.439460 25.020257 14.950941 -3.904045 -36.598812 0.000000 0.000000 0.000000 -15.862165 -13.206031 5.395213 -33.681996 -26.376215 1.003118 32.068063 -47.459097 -11.692608 0.000000 0.000000 0.000000 23.563126 -1.326103 -1.332849 34.251415 24.610425 0.864270 -21.264627 53.953696 -6.885140 0.000000 0.000000 0.000000 
